<?xml version="1.0" standalone="no"?>
<!DOCTYPE svg PUBLIC "-//W3C//DTD SVG 20010904//EN"
 "http://www.w3.org/TR/2001/REC-SVG-20010904/DTD/svg10.dtd">
<svg version="1.0" xmlns="http://www.w3.org/2000/svg"
 width="64px" height="64px" viewBox="0 0 400.000000 400.000000"
 preserveAspectRatio="xMidYMid meet">
<metadata>
Created by potrace 1.11, written by Peter Selinger 2001-2013
</metadata>
<g transform="translate(0.000000,400.000000) scale(0.100000,-0.100000)"
fill="#FFFFFF" stroke="none">
<path d="M1974 3872 c6 -9 1 -11 -18 -8 -14 2 -27 -1 -30 -7 -3 -9 -7 -8 -14
2 -5 7 -15 10 -22 6 -6 -4 -37 -9 -68 -11 -121 -9 -139 -11 -149 -17 -5 -4
-20 -5 -32 -2 -12 2 -19 0 -16 -4 2 -5 -4 -11 -15 -14 -11 -3 -20 0 -20 6 0 8
-3 8 -8 2 -6 -9 -18 -14 -47 -19 -5 -1 -16 -5 -22 -9 -7 -5 -13 -5 -13 -1 0 3
-6 2 -12 -3 -7 -6 -21 -9 -30 -8 -10 2 -18 -1 -18 -6 0 -5 -8 -9 -19 -9 -10 0
-31 -7 -47 -14 -15 -8 -31 -13 -36 -10 -4 3 -8 0 -8 -5 0 -6 -9 -11 -19 -11
-11 0 -23 -5 -26 -11 -4 -6 -13 -8 -20 -5 -7 2 -16 -2 -19 -10 -3 -8 -9 -13
-13 -12 -4 1 -27 -8 -49 -20 -23 -11 -44 -18 -48 -15 -3 4 -6 1 -6 -5 0 -7 -7
-12 -15 -12 -8 0 -15 -4 -15 -10 0 -5 -7 -10 -15 -10 -8 0 -15 -5 -15 -11 0
-6 -7 -9 -15 -5 -9 3 -19 -3 -25 -14 -6 -11 -14 -19 -18 -18 -14 3 -42 -14
-36 -23 3 -5 -2 -9 -10 -9 -8 0 -22 -8 -32 -17 -10 -10 -20 -18 -24 -18 -6 0
-27 -17 -65 -53 -14 -13 -25 -20 -25 -18 0 3 -13 -8 -28 -24 -16 -16 -32 -27
-35 -23 -4 3 -7 0 -7 -9 0 -8 -11 -21 -25 -28 -13 -7 -22 -17 -19 -22 3 -4 -3
-8 -12 -8 -10 0 -15 -3 -11 -6 8 -8 -25 -44 -41 -44 -7 0 -11 -4 -8 -9 7 -11
-19 -33 -28 -23 -4 4 -6 2 -4 -4 2 -6 -12 -29 -30 -52 -19 -22 -33 -44 -32
-47 1 -4 -9 -17 -22 -29 -27 -26 -46 -54 -54 -78 -4 -10 -10 -18 -15 -18 -5 0
-9 -7 -9 -15 0 -8 -5 -15 -10 -15 -6 0 -9 -6 -8 -12 2 -7 -3 -12 -10 -10 -8 1
-11 -2 -8 -7 4 -5 -1 -17 -10 -25 -8 -9 -13 -16 -9 -16 3 0 0 -10 -7 -22 -7
-13 -11 -26 -10 -30 1 -5 -3 -8 -9 -8 -6 0 -9 -7 -5 -15 3 -9 0 -15 -9 -15 -9
0 -12 -6 -9 -15 4 -10 0 -15 -12 -15 -15 0 -16 -2 -5 -9 9 -6 10 -11 2 -15 -6
-4 -9 -12 -6 -17 4 -5 1 -9 -4 -9 -6 0 -11 -9 -11 -21 0 -11 -4 -17 -10 -14
-5 3 -7 0 -4 -9 3 -8 -2 -26 -11 -40 -10 -14 -15 -33 -11 -41 3 -8 2 -15 -3
-15 -10 0 -32 -71 -25 -82 3 -4 0 -8 -6 -8 -6 0 -8 -11 -6 -25 3 -14 1 -23 -5
-20 -5 4 -10 -5 -10 -19 -2 -35 -3 -39 -13 -55 -7 -11 -6 -12 5 -6 11 7 12 6
2 -6 -7 -8 -13 -34 -14 -58 -2 -23 -6 -44 -9 -46 -3 -2 -7 -50 -8 -107 -2 -56
-7 -107 -12 -112 -6 -6 -5 -14 1 -22 7 -8 7 -14 -1 -19 -7 -4 -8 -11 -1 -18 5
-7 11 -57 14 -113 2 -55 7 -105 10 -111 4 -6 7 -33 8 -61 1 -28 6 -49 10 -46
4 2 7 -4 7 -13 0 -10 3 -31 7 -48 4 -16 8 -44 9 -62 1 -17 4 -29 8 -26 7 4 9
-2 12 -35 1 -7 6 -16 11 -20 6 -4 11 -20 13 -37 2 -16 8 -32 12 -35 5 -3 12
-17 14 -30 2 -14 5 -27 6 -30 2 -3 2 -8 1 -12 0 -5 3 -8 9 -8 6 0 10 -3 9 -7
-2 -16 14 -53 22 -53 5 0 9 -3 8 -7 -2 -15 13 -53 21 -53 5 0 6 -10 3 -22 -4
-19 -3 -20 6 -8 9 12 11 11 11 -7 0 -13 3 -23 8 -23 4 0 16 -18 26 -40 11 -22
23 -40 28 -40 6 0 8 -5 6 -12 -2 -6 3 -20 11 -29 30 -33 41 -48 41 -56 0 -4
14 -21 30 -37 17 -16 30 -36 30 -43 0 -8 5 -11 10 -8 6 3 10 0 10 -7 0 -7 15
-27 34 -45 19 -17 32 -34 29 -37 -4 -3 1 -6 11 -6 9 0 14 -4 11 -10 -3 -5 1
-10 10 -10 9 0 14 -4 11 -9 -3 -5 1 -12 10 -15 8 -3 12 -11 8 -17 -4 -7 -2
-10 6 -7 7 2 39 -22 72 -54 33 -32 67 -58 75 -58 8 0 11 -5 8 -10 -3 -6 0 -10
7 -10 8 0 20 -9 28 -19 7 -11 17 -18 21 -16 4 3 12 -2 19 -10 7 -8 19 -15 27
-15 8 0 11 -4 8 -10 -3 -5 1 -10 9 -10 9 0 16 -4 16 -10 0 -5 9 -10 20 -10 11
0 20 -4 20 -9 0 -5 22 -20 50 -33 27 -14 47 -28 43 -32 -4 -4 0 -4 10 0 11 4
19 0 23 -9 3 -9 12 -13 20 -10 8 3 14 0 14 -6 0 -6 3 -10 8 -10 22 4 42 -2 37
-11 -4 -6 -3 -10 2 -9 4 1 18 -2 30 -6 12 -4 25 -6 29 -5 4 1 10 -3 13 -9 4
-6 19 -12 34 -13 15 -1 27 -6 27 -10 0 -4 9 -8 20 -8 11 0 20 -4 20 -8 0 -4
12 -9 26 -10 14 -1 31 -5 37 -9 13 -8 19 -9 60 -11 16 -1 26 -6 23 -11 -3 -5
8 -7 24 -6 17 1 30 -2 30 -7 0 -6 9 -8 20 -5 11 3 20 2 20 -3 0 -4 12 -6 27
-4 15 1 33 -2 40 -8 10 -8 13 -7 13 3 1 9 5 8 15 -5 8 -11 15 -15 15 -9 0 6
12 9 28 6 15 -2 46 -4 69 -5 25 -1 40 -5 36 -11 -4 -6 -1 -7 8 -1 19 12 42 11
51 -1 5 -6 8 -5 8 3 0 9 5 10 18 4 9 -5 26 -6 37 -2 11 4 26 3 34 -4 10 -8 13
-8 8 0 -4 7 11 12 46 13 100 3 127 5 127 11 0 4 10 6 23 5 12 -1 30 2 39 6 10
6 19 5 23 -2 5 -7 14 -4 26 7 11 9 22 15 25 11 3 -3 17 -2 29 3 16 6 25 5 29
-3 2 -7 5 -5 5 5 1 11 8 16 21 13 11 -2 22 0 25 6 9 14 27 11 20 -3 -4 -7 1
-4 9 6 9 11 16 17 16 13 0 -3 15 0 34 8 18 8 36 11 40 8 3 -4 6 -2 6 3 0 5 10
10 22 11 11 1 24 7 28 13 4 7 11 11 16 10 5 0 16 1 24 3 8 2 18 3 21 3 3 -1
14 7 24 17 9 10 24 16 31 13 8 -3 14 -1 14 4 0 6 6 10 14 10 8 0 17 8 20 17 6
15 8 15 16 3 8 -12 10 -12 16 3 3 9 10 14 15 11 5 -3 12 2 15 10 3 9 10 14 14
11 4 -2 15 4 25 15 10 11 26 20 36 20 10 0 21 5 24 10 4 6 11 7 17 4 7 -4 8
-2 4 4 -4 8 3 16 19 22 14 5 28 16 31 25 3 8 10 12 15 9 5 -3 9 0 9 5 0 6 7
11 16 11 8 0 12 5 9 10 -5 9 10 15 18 8 1 -2 30 24 64 57 63 63 66 65 84 65 5
0 8 4 5 8 -6 10 35 48 47 44 5 -1 6 2 3 7 -4 5 6 19 20 30 15 12 23 21 18 21
-5 0 5 12 22 28 17 15 34 35 37 45 4 10 12 15 17 12 6 -4 10 -3 9 2 -4 15 13
43 22 37 5 -3 9 -2 8 3 -3 20 2 34 11 28 6 -3 10 1 10 9 0 9 5 16 11 16 5 0 7
5 4 10 -3 6 -1 10 6 10 7 0 9 3 6 6 -4 4 3 15 14 25 11 9 20 20 19 23 0 4 19
41 42 84 24 42 42 80 40 85 -1 4 3 7 9 7 5 0 7 5 4 10 -3 6 -1 10 6 10 7 0 9
3 6 7 -4 3 -2 12 4 20 6 7 8 13 3 13 -5 0 -3 4 4 9 7 4 15 14 16 22 9 44 20
69 30 69 6 0 4 5 -4 10 -9 6 -10 10 -3 10 7 0 15 16 19 35 3 19 10 38 15 40 4
3 6 12 2 20 -3 8 -1 15 5 15 5 0 9 12 8 28 0 18 4 26 14 24 11 -3 11 0 0 12
-7 9 -8 16 -2 16 6 0 9 11 7 25 -1 14 2 25 6 25 5 0 9 18 9 41 0 22 5 49 10
60 7 12 7 19 1 19 -6 0 -8 7 -5 15 4 8 9 13 13 11 3 -2 5 28 4 67 -1 40 3 77
8 84 7 7 6 14 -1 18 -6 3 -7 12 -3 18 9 15 11 67 2 61 -4 -2 -7 7 -6 21 0 16
4 22 11 18 8 -5 8 -3 0 8 -6 8 -11 21 -12 29 -2 87 -7 130 -15 130 -5 0 -4 7
3 15 9 11 9 15 1 15 -7 0 -10 3 -8 7 5 7 -3 61 -18 138 -4 16 -9 32 -13 35 -4
3 -7 14 -6 25 0 11 -5 34 -12 52 -7 17 -10 34 -6 37 3 3 0 6 -7 6 -6 0 -11 6
-10 13 2 13 -7 41 -22 70 -5 10 -7 22 -4 26 2 5 -2 14 -10 21 -8 7 -15 18 -15
25 0 14 -40 96 -51 105 -3 3 -5 13 -3 23 1 9 -2 15 -7 11 -8 -5 -14 17 -10 39
1 5 -3 6 -8 3 -9 -6 -26 22 -22 37 0 4 -6 10 -14 13 -8 3 -12 10 -9 15 3 5 1
9 -4 9 -6 0 -15 14 -21 30 -5 17 -17 33 -25 36 -9 3 -13 10 -10 15 3 5 0 9 -5
9 -6 0 -11 7 -11 16 0 8 -4 12 -10 9 -5 -3 -10 -1 -10 4 0 22 1 20 -65 92 -8
9 -15 22 -15 29 0 7 -3 11 -6 8 -7 -8 -54 36 -54 50 0 6 -9 13 -19 17 -13 4
-18 12 -14 22 4 11 3 14 -5 9 -7 -4 -15 -1 -18 8 -3 9 -10 13 -15 10 -5 -3 -9
2 -9 11 0 9 -4 14 -8 11 -4 -3 -21 11 -37 30 -16 19 -33 34 -40 34 -6 0 -17 9
-25 20 -8 11 -20 20 -28 20 -7 0 -15 7 -18 15 -4 8 -10 13 -14 10 -4 -3 -10 2
-14 10 -3 8 -12 15 -21 15 -8 0 -15 5 -15 11 0 5 -4 8 -8 5 -5 -3 -14 4 -22
14 -8 10 -17 17 -21 14 -4 -2 -13 2 -21 9 -15 15 -49 31 -60 29 -5 -1 -7 3 -5
9 1 6 -7 13 -17 15 -10 1 -22 6 -25 11 -3 4 -13 9 -21 11 -8 2 -17 8 -18 13
-2 5 -8 7 -13 3 -5 -3 -9 0 -9 7 0 7 -3 10 -6 6 -4 -3 -24 3 -45 13 -21 11
-45 20 -54 20 -8 0 -15 5 -15 10 0 6 -3 9 -7 9 -26 -4 -53 2 -48 11 4 6 3 10
-2 9 -24 -4 -53 2 -48 10 3 6 -4 8 -15 6 -11 -2 -20 0 -20 5 0 5 -9 7 -20 5
-11 -2 -20 0 -20 5 0 4 -8 7 -17 5 -10 -1 -22 1 -28 5 -5 4 -18 8 -27 9 -41 3
-48 5 -48 13 0 4 -5 8 -11 8 -5 0 -7 -5 -3 -11 3 -6 -8 -4 -24 5 -21 11 -33
12 -37 5 -5 -6 -12 -4 -22 8 -8 10 -11 12 -7 4 5 -10 1 -11 -17 -5 -13 4 -42
8 -64 9 -64 4 -66 4 -60 18 4 6 1 5 -7 -3 -14 -16 -48 -23 -48 -9 0 4 -16 6
-36 3 -21 -2 -43 1 -52 8 -13 11 -14 11 -8 0z m13 -134 c4 9 8 10 18 2 9 -8
15 -8 20 0 3 5 11 10 16 10 6 0 8 -3 6 -7 -3 -5 36 -9 86 -10 52 -2 94 -7 97
-14 10 -14 21 -14 31 3 7 10 9 11 9 0 0 -7 8 -12 18 -10 9 1 23 -1 30 -5 7 -5
12 -3 12 3 0 6 5 8 10 5 6 -4 8 -9 6 -13 -2 -4 8 -8 22 -8 45 -3 72 -8 72 -15
0 -3 10 -6 23 -5 12 1 30 -4 41 -10 10 -7 25 -10 34 -7 11 5 13 3 7 -7 -5 -8
-4 -11 3 -6 6 4 19 2 29 -3 26 -14 57 -24 66 -23 4 1 7 -3 7 -9 0 -5 4 -8 8
-5 5 3 23 -4 40 -15 18 -10 39 -19 47 -19 8 0 15 -4 15 -10 0 -5 3 -9 8 -9 20
3 33 -2 27 -11 -4 -6 -3 -10 2 -9 22 4 41 -3 61 -21 12 -11 25 -20 30 -20 5 0
15 -7 22 -15 7 -8 16 -12 21 -9 5 3 9 0 9 -5 0 -6 5 -11 11 -11 7 0 20 -9 30
-21 9 -11 21 -21 26 -22 4 -1 7 -6 5 -10 -1 -5 2 -6 7 -3 5 3 26 -10 47 -30
22 -20 34 -33 27 -30 -19 10 -79 -20 -102 -51 -11 -15 -46 -79 -76 -142 -30
-63 -59 -119 -65 -125 -5 -5 -10 -14 -10 -20 0 -11 -21 -54 -265 -551 -98
-198 -205 -418 -240 -490 -34 -71 -140 -287 -234 -480 -95 -192 -229 -466
-298 -607 l-127 -257 -93 127 c-52 70 -103 138 -113 152 -50 65 -259 347 -489
658 -139 188 -263 349 -274 357 -37 26 -94 19 -129 -15 -27 -28 -30 -36 -26
-79 3 -27 10 -55 17 -62 9 -11 174 -234 336 -454 11 -15 34 -45 51 -68 17 -23
121 -163 231 -312 111 -148 246 -331 301 -405 73 -98 96 -136 85 -138 -9 -2
-18 0 -22 5 -7 9 -22 13 -62 16 -15 1 -25 5 -23 8 5 9 -26 20 -37 13 -5 -3
-12 1 -15 9 -3 9 -13 13 -25 10 -10 -3 -19 -1 -19 4 0 5 -20 15 -45 22 -25 7
-45 17 -45 22 0 5 -7 9 -16 9 -20 0 -74 30 -92 50 -8 8 -11 9 -7 3 3 -7 1 -13
-4 -13 -6 0 -11 7 -11 16 0 8 -4 13 -9 9 -5 -3 -17 2 -25 11 -9 8 -16 12 -16
7 0 -4 -5 0 -11 10 -6 9 -14 15 -20 12 -5 -4 -12 1 -15 9 -3 9 -9 14 -13 11
-4 -2 -14 5 -21 16 -8 10 -23 19 -33 19 -10 0 -15 5 -12 10 3 6 0 10 -7 10 -8
0 -20 9 -28 19 -7 11 -17 18 -22 15 -4 -3 -8 0 -8 6 0 6 -5 8 -10 5 -6 -3 -10
-1 -10 5 0 6 -7 18 -15 26 -8 9 -15 12 -15 8 0 -4 -9 5 -21 20 -11 14 -26 23
-32 19 -7 -3 -9 -3 -5 2 4 4 -2 16 -14 26 -11 11 -17 19 -12 19 5 1 -4 8 -19
16 -15 8 -25 19 -22 24 4 6 1 10 -5 10 -6 0 -8 5 -4 12 4 6 3 8 -3 5 -9 -6
-63 52 -66 70 0 4 -11 16 -24 26 -13 10 -23 24 -23 31 0 6 -9 18 -19 26 -11 7
-18 17 -15 21 2 4 -1 14 -8 21 -18 19 -48 69 -55 90 -3 10 -9 18 -14 18 -5 0
-9 5 -9 12 0 6 -8 20 -18 31 -9 11 -11 17 -5 13 16 -9 -16 54 -37 72 -8 7 -10
11 -3 8 8 -5 8 0 0 19 -7 14 -15 25 -19 25 -4 0 -5 7 -1 16 3 9 1 19 -5 23 -7
4 -13 19 -14 34 -1 15 -6 27 -10 27 -4 0 -8 9 -8 19 0 11 -5 23 -10 26 -6 4
-8 10 -5 15 3 5 0 21 -6 37 -6 15 -13 39 -15 53 -10 55 -12 65 -13 65 -2 0 -4
25 -7 55 -3 30 -10 57 -15 61 -8 5 -8 9 0 13 6 4 9 12 5 17 -3 6 -7 33 -8 62
-1 29 -6 59 -11 66 -6 11 -4 13 8 8 11 -4 14 -2 10 8 -3 8 -9 12 -14 9 -5 -3
-5 6 1 20 7 19 6 26 -3 26 -9 0 -9 2 0 8 7 5 11 32 10 76 -1 37 1 70 4 72 3 1
5 19 4 39 0 19 2 35 5 35 3 0 5 15 5 33 -2 37 4 59 14 53 4 -3 6 17 6 44 0 27
3 46 7 44 7 -5 12 11 6 19 -2 2 3 11 11 20 11 14 11 17 0 18 -10 0 -11 2 -1 6
6 2 10 9 6 14 -3 5 0 9 5 9 6 0 10 3 10 8 -1 4 -1 9 1 12 1 3 4 16 6 30 2 13
9 27 15 31 6 3 10 9 9 13 -1 4 1 17 5 29 4 12 6 28 6 35 -1 6 2 12 7 12 6 0
13 11 16 25 4 14 11 23 16 20 6 -4 9 4 6 17 -2 13 4 30 14 38 9 8 16 23 14 33
-1 9 2 15 7 11 5 -3 9 2 9 10 0 9 5 16 11 16 5 0 7 5 4 10 -3 6 -1 10 4 10 6
0 11 6 11 14 0 7 7 19 15 26 8 7 15 21 15 32 0 10 4 17 8 14 4 -2 20 15 36 40
15 24 32 44 37 44 5 0 9 7 9 15 0 8 5 15 12 15 6 0 9 3 5 6 -7 7 15 33 24 28
4 -2 10 8 13 22 4 15 9 24 13 21 7 -7 52 36 47 45 -3 4 5 9 16 13 11 4 18 10
15 15 -3 5 4 11 15 15 11 3 20 13 20 21 0 8 4 13 8 10 4 -2 23 11 41 30 19 19
40 34 47 34 7 0 15 9 19 20 3 11 9 19 13 18 16 -3 41 15 35 25 -3 5 -2 7 4 4
5 -4 19 2 30 13 12 10 24 16 27 13 3 -4 6 -2 6 4 0 6 16 18 35 27 19 9 35 21
35 27 0 6 4 8 9 5 5 -3 14 1 21 9 6 7 17 12 24 9 8 -3 16 2 20 11 3 9 10 13
16 10 5 -3 10 -1 10 6 0 7 3 9 7 6 3 -4 15 0 25 10 10 9 18 13 18 9 0 -4 19 4
43 17 23 13 48 22 55 20 6 -3 12 -1 12 5 0 5 7 9 15 10 8 1 22 3 30 4 8 1 15
5 15 10 0 5 4 7 9 3 5 -3 12 -1 16 4 3 6 13 7 22 4 12 -5 14 -3 8 7 -5 9 -4
11 3 6 6 -4 20 -2 30 3 13 7 23 6 32 -2 10 -9 11 -9 6 1 -4 7 -1 12 8 13 25 2
30 4 44 12 7 5 12 3 12 -5 0 -11 2 -11 9 0 5 8 29 14 60 15 28 1 51 5 51 8 0
6 38 9 132 13 25 0 50 5 54 9 4 4 12 2 17 -5 7 -11 10 -10 14 0z m1266 -541
c4 3 7 2 7 -4 0 -5 20 -31 45 -58 24 -27 42 -52 39 -57 -3 -4 2 -8 11 -8 9 0
13 -4 10 -10 -3 -5 -1 -10 4 -10 6 0 11 -7 11 -16 0 -8 4 -13 9 -9 5 3 12 -4
16 -15 3 -11 11 -20 16 -20 6 0 8 -4 4 -9 -3 -5 3 -17 12 -27 10 -10 18 -21
18 -26 0 -5 7 -13 15 -18 8 -5 11 -10 6 -10 -5 0 -3 -6 3 -13 6 -8 7 -18 3
-22 -4 -5 1 -5 10 -2 12 4 16 1 13 -14 -2 -10 0 -19 5 -19 5 0 12 -11 16 -25
3 -14 10 -25 15 -25 5 0 6 -6 3 -13 -3 -8 2 -20 10 -27 9 -7 13 -16 10 -21 -3
-5 0 -9 6 -9 7 0 10 -6 7 -14 -3 -8 -1 -16 4 -18 5 -2 11 -13 12 -26 0 -12 4
-22 8 -22 4 0 10 -16 13 -35 4 -20 11 -33 16 -30 6 3 7 -1 4 -10 -4 -8 0 -23
7 -32 12 -14 12 -16 0 -8 -11 6 -11 3 2 -14 8 -13 13 -30 10 -37 -3 -8 0 -14
6 -14 6 0 11 -5 11 -11 0 -5 -5 -7 -12 -3 -7 5 -8 3 -2 -7 16 -25 32 -79 22
-73 -7 4 -7 0 0 -12 5 -11 9 -31 8 -46 -1 -14 1 -25 5 -23 7 5 11 -47 13 -152
0 -39 4 -69 9 -66 9 5 9 5 -2 -35 -6 -20 -6 -30 0 -27 5 4 9 2 9 -4 0 -5 -5
-13 -11 -17 -8 -4 -7 -9 2 -15 8 -5 9 -9 4 -9 -6 0 -12 -25 -12 -57 -1 -32 -5
-74 -8 -93 -4 -19 -7 -50 -8 -67 -1 -18 -5 -33 -9 -33 -4 0 -5 -7 -2 -15 4 -8
2 -15 -4 -15 -5 0 -8 -12 -6 -27 1 -15 -1 -32 -6 -38 -5 -6 -11 -24 -14 -40
-2 -17 -5 -30 -6 -30 -1 0 -3 -9 -5 -19 -2 -10 -9 -22 -16 -26 -6 -4 -8 -13
-4 -19 4 -7 0 -23 -9 -36 -9 -13 -16 -28 -16 -33 0 -5 -7 -26 -15 -46 -8 -20
-15 -39 -14 -42 0 -3 -8 -12 -18 -20 -10 -7 -14 -14 -9 -14 5 0 3 -7 -4 -15
-6 -8 -9 -18 -6 -23 3 -5 -3 -17 -14 -27 -11 -10 -20 -24 -20 -32 0 -7 -4 -13
-9 -13 -5 0 -11 -8 -15 -18 -9 -29 -41 -79 -80 -126 -20 -24 -36 -49 -36 -55
0 -6 -7 -11 -16 -11 -8 0 -13 -4 -9 -9 3 -6 -4 -15 -16 -21 -11 -7 -19 -14
-16 -16 3 -3 -14 -24 -37 -46 -22 -23 -40 -45 -38 -50 1 -4 -5 -8 -13 -8 -8 0
-15 -4 -15 -9 0 -5 -9 -13 -20 -16 -11 -4 -19 -9 -17 -13 2 -4 -7 -17 -20 -29
-13 -12 -23 -20 -23 -16 0 3 -8 -4 -19 -15 -10 -12 -23 -22 -29 -22 -5 0 -13
-7 -16 -16 -3 -8 -10 -13 -14 -10 -5 3 -15 -4 -22 -15 -8 -10 -20 -19 -26 -19
-7 0 -15 -7 -18 -16 -3 -8 -10 -13 -15 -9 -6 3 -15 -4 -21 -15 -6 -11 -15 -18
-19 -15 -5 2 -20 -5 -35 -16 -14 -11 -26 -17 -26 -12 0 4 -6 1 -13 -8 -7 -9
-14 -16 -17 -16 -3 0 -38 -16 -79 -36 -41 -20 -78 -34 -82 -32 -4 3 -9 -2 -12
-10 -4 -8 -15 -12 -27 -10 -11 2 -20 -1 -20 -6 0 -6 -4 -7 -10 -4 -5 3 -10 1
-10 -5 0 -6 -4 -8 -10 -5 -5 3 -10 2 -10 -2 0 -5 -8 -9 -17 -10 -40 -4 -83
-16 -83 -22 0 -7 -19 -10 -84 -14 -18 -1 -32 -6 -30 -12 4 -9 -21 -12 -109
-16 -9 0 -16 -3 -13 -7 2 -4 -20 -7 -50 -6 -30 0 -57 -4 -60 -8 -3 -5 -12 -4
-20 3 -11 9 -18 9 -26 1 -7 -7 -17 -8 -29 -2 -12 7 -20 6 -24 0 -5 -8 -12 -7
-23 2 -12 10 -14 10 -8 1 4 -7 3 -13 -3 -13 -5 0 -13 5 -16 10 -5 8 -12 7 -23
-2 -13 -11 -14 -11 -7 2 8 13 7 13 -8 1 -9 -7 -17 -9 -17 -4 0 6 -12 9 -27 8
-16 -1 -32 0 -38 2 -5 2 46 117 114 256 252 513 763 1557 931 1902 54 110 151
308 215 440 65 132 119 252 119 268 1 22 3 25 12 12 6 -8 14 -12 17 -8z"/>
</g>
</svg>
