<?xml version="1.0" encoding="iso-8859-1"?>
<!-- Generator: Adobe Illustrator 19.0.0, SVG Export Plug-In . SVG Version: 6.00 Build 0)  -->
<svg version="1.1" id="Capa_1" xmlns="http://www.w3.org/2000/svg" xmlns:xlink="http://www.w3.org/1999/xlink" x="0px" y="0px"
	 viewBox="0 0 502.016 502.016" style="enable-background:new 0 0 502.016 502.016;" xml:space="preserve">
<g>
	<g>
		<g>
			<path d="M409.088,116.752l-212.24,205.184l-64-61.808L40,350l156.8,151.632l305.216-295.024L409.088,116.752z M86.016,350
				l46.912-45.344l64,61.792l212.16-205.184L456,206.608L196.8,457.12L86.016,350z"/>
			<polygon points="369.088,44.896 427.888,101.744 450.128,78.736 369.088,0.384 308.976,58.496 331.232,81.488 			"/>
			<rect x="269.596" y="87.353" transform="matrix(0.6953 0.7187 -0.7187 0.6953 161.3068 -173.7737)" width="32" height="32"/>
			<rect x="223.578" y="131.844" transform="matrix(0.6953 0.7187 -0.7187 0.6953 179.2619 -127.1417)" width="32" height="32"/>
			<polygon points="82.128,268.512 46.016,233.632 92.928,188.288 156.848,250.08 216.192,192.704 193.952,169.696 156.848,205.568 
				92.928,143.776 0,233.632 59.888,291.536 			"/>
		</g>
	</g>
</g>
<g>
</g>
<g>
</g>
<g>
</g>
<g>
</g>
<g>
</g>
<g>
</g>
<g>
</g>
<g>
</g>
<g>
</g>
<g>
</g>
<g>
</g>
<g>
</g>
<g>
</g>
<g>
</g>
<g>
</g>
</svg>
